<svg xmlns="http://www.w3.org/2000/svg" width="1200" height="760" viewBox="0 0 1200 760" preserveAspectRatio="xMidYMid">
  <defs>
    <linearGradient id="gradA" x1="0" x2="1">
      <stop offset="0%" stop-color="#00b3b3" />
      <stop offset="100%" stop-color="#082b66" />
    </linearGradient>
    <filter id="softShadow" x="-50%" y="-50%" width="200%" height="200%">
      <feDropShadow dx="0" dy="10" stdDeviation="18" flood-color="#072042" flood-opacity="0.12"/>
    </filter>
  </defs>

  <style>
    .node-pulse { transform-origin: center; animation: pulse 2.6s ease-in-out infinite; }
    .node-pulse.delay { animation-delay: 0.6s }
    .node-small { animation: blink 3s linear infinite; }
    @keyframes pulse { 0% { transform: scale(1); opacity: 1 } 50% { transform: scale(1.18); opacity: 0.9 } 100% { transform: scale(1); opacity: 1 } }
    @keyframes blink { 0% { opacity: 1 } 50% { opacity: 0.5 } 100% { opacity: 1 } }
    .dot { fill: #fff; opacity: 0.9 }
  </style>

  <rect width="100%" height="100%" fill="none" />

  <!-- soft background circles -->
  <g opacity="0.12">
    <circle cx="180" cy="120" r="120" fill="url(#gradA)" />
    <circle cx="980" cy="80" r="140" fill="#00b3b3" />
    <circle cx="760" cy="420" r="200" fill="#082b66" />
  </g>

  <!-- animated network illustration -->
  <g transform="translate(120,120)" filter="url(#softShadow)">
    <!-- connectors with subtle stroke -->
    <g id="connectors" stroke="#0b2b56" stroke-width="2" stroke-linecap="round" stroke-linejoin="round" fill="none" opacity="0.9">
      <path id="p1" d="M120 160 L240 90 L420 150 L540 60" />
      <path id="p2" d="M80 40 L220 30 L360 110 L560 140" />
      <path id="p3" d="M300 200 L420 260 L600 220" />
    </g>

    <!-- moving dots along connectors -->
    <circle r="5" class="dot">
      <animateMotion dur="6s" repeatCount="indefinite" rotate="auto">
        <mpath href="#p1" />
      </animateMotion>
    </circle>
    <circle r="4" class="dot">
      <animateMotion dur="8s" repeatCount="indefinite" rotate="auto">
        <mpath href="#p2" />
      </animateMotion>
    </circle>
    <circle r="4.5" class="dot">
      <animateMotion dur="7s" repeatCount="indefinite" rotate="auto">
        <mpath href="#p3" />
      </animateMotion>
    </circle>

    <!-- nodes with pulsing animation -->
    <g>
      <circle cx="120" cy="160" r="14" fill="#00b3b3" class="node-pulse" />
      <circle cx="240" cy="90" r="18" fill="#082b66" class="node-pulse delay" />
      <circle cx="420" cy="150" r="16" fill="#00b3b3" class="node-pulse" />
      <circle cx="540" cy="60" r="12" fill="#00b3b3" class="node-small" />
      <circle cx="220" cy="30" r="10" fill="#082b66" class="node-small" />
      <circle cx="360" cy="110" r="12" fill="#00b3b3" class="node-pulse" />
      <circle cx="560" cy="140" r="10" fill="#082b66" class="node-small" />
      <circle cx="300" cy="200" r="14" fill="#00b3b3" class="node-pulse delay" />
      <circle cx="420" cy="260" r="12" fill="#082b66" class="node-small" />
      <circle cx="600" cy="220" r="16" fill="#00b3b3" class="node-pulse" />
    </g>

    <!-- central automation hub with subtle glow -->
    <g transform="translate(760,260)">
      <circle cx="0" cy="0" r="76" fill="url(#gradA)" opacity="0.98" />
      <g transform="translate(-30,-10) scale(1.15)" fill="#fff">
        <path d="M34 9c-4 0-7 3-7 7v3.5C27 22 30 25 34 25s7-3 7-5.5V16c0-4-3-7-7-7z" opacity="0.08" />
        <path d="M6 12a2 2 0 012-2h4a2 2 0 012 2v1h2v6H8v-6h2v-1H8a2 2 0 00-2 2v6a2 2 0 002 2h8v2H8a4 4 0 01-4-4v-6z" />
        <path d="M24 8v2h6v4h-6v2h6v2h-6v2h6v2h-8v-14h2z" />
      </g>
      <circle cx="0" cy="0" r="76" fill="none" stroke="#ffffff" stroke-opacity="0.08" stroke-width="2" />
    </g>

    <!-- subtle annotation boxes -->
    <g transform="translate(40,320)">
      <rect x="0" y="0" width="160" height="96" rx="12" fill="#fff" opacity="0.05" />
      <rect x="12" y="16" width="136" height="18" rx="6" fill="#fff" opacity="0.12" />
      <rect x="12" y="42" width="90" height="12" rx="6" fill="#fff" opacity="0.08" />
    </g>
  </g>

</svg>
